<svg xmlns="http://www.w3.org/2000/svg" viewBox="0 0 24 24" fill="currentColor"><defs><symbol id="p" viewBox="0 0 24 24"><path stroke="none" d="M0 0h24v24H0z" fill="none"/><path d="M12 2a4 4 0 0 1 4 4a5.03 5.03 0 0 1 -.438 2.001l.438 -.001a1 1 0 0 1 .117 1.993l-.117 .007h-1.263l1.24 5.79a1 1 0 0 1 -.747 1.184l-.113 .02l-.117 .006h-6a1 1 0 0 1 -.996 -1.093l.018 -.117l1.24 -5.79h-1.262a1 1 0 0 1 -.117 -1.993l.117 -.007h.438a5.154 5.154 0 0 1 -.412 -1.525l-.02 -.259l-.006 -.216a4 4 0 0 1 4 -4z" /><path d="M18 18h-12a1 1 0 0 0 -1 1a2 2 0 0 0 2 2h10a2 2 0 0 0 1.987 -1.768l.011 -.174a1 1 0 0 0 -.998 -1.058z" /></symbol><symbol id="n" viewBox="0 0 24 24"><path stroke="none" d="M0 0h24v24H0z" fill="none"/><path d="M8.959 1.99l-.147 .028l-.115 .029a1 1 0 0 0 -.646 1.27l.749 2.245l-2.815 1.735a2 2 0 0 0 -.655 2.751l.089 .133a2 2 0 0 0 1.614 .819l1.563 -.001l-1.614 4.674a1 1 0 0 0 .945 1.327h7.961a1 1 0 0 0 1 -.978l.112 -5c0 -3.827 -1.555 -6.878 -4.67 -7.966l-2.399 -.83l-.375 -.121l-.258 -.074l-.135 -.031l-.101 -.013l-.055 -.001l-.048 .003z" /><path d="M18 18h-12a1 1 0 0 0 -1 1a2 2 0 0 0 2 2h10a2 2 0 0 0 1.987 -1.768l.011 -.174a1 1 0 0 0 -.998 -1.058z" /></symbol><symbol id="b" viewBox="0 0 24 24"><path stroke="none" d="M0 0h24v24H0z" fill="none"/><path d="M12 2a2 2 0 0 1 1.386 3.442c.646 .28 1.226 .62 1.74 1.017l-3.833 3.834l-.083 .094a1 1 0 0 0 1.403 1.403l.094 -.083l3.814 -3.813c.977 1.35 1.479 3.07 1.479 5.106c0 1.913 -1.178 3.722 -3.089 3.973l-.2 .02l-.211 .007h-5c-2.126 0 -3.5 -1.924 -3.5 -4c0 -3.68 1.57 -6.255 4.613 -7.56a2 2 0 0 1 1.387 -3.44z" /><path d="M12 5v1" /><path d="M18 18h-12a1 1 0 0 0 -1 1a2 2 0 0 0 2 2h10a2 2 0 0 0 1.987 -1.768l.011 -.174a1 1 0 0 0 -.998 -1.058z" /></symbol><symbol id="r" viewBox="0 0 24 24"><path stroke="none" d="M0 0h24v24H0z" fill="none"/><path d="M14 3a1 1 0 0 1 .993 .883l.007 .117v2h1.652l.362 -2.164a1 1 0 0 1 1.034 -.836l.116 .013a1 1 0 0 1 .836 1.035l-.013 .116l-.5 3a1 1 0 0 1 -.865 .829l-.122 .007h-1.383l.877 7.89a1 1 0 0 1 -.877 1.103l-.117 .007h-8a1 1 0 0 1 -1 -.993l.006 -.117l.877 -7.89h-1.383a1 1 0 0 1 -.96 -.718l-.026 -.118l-.5 -3a1 1 0 0 1 1.947 -.442l.025 .114l.361 2.164h1.653v-2a1 1 0 0 1 1.993 -.117l.007 .117v2h2v-2a1 1 0 0 1 1 -1z" /><path d="M18 18h-12a1 1 0 0 0 -1 1a2 2 0 0 0 2 2h10a2 2 0 0 0 1.987 -1.768l.011 -.174a1 1 0 0 0 -.998 -1.058z" /></symbol><symbol id="q" viewBox="0 0 24 24"><path stroke="none" d="M0 0h24v24H0z" fill="none"/><path d="M12 2a2 2 0 0 1 1.572 3.236l.793 1.983l1.702 -1.702a2.003 2.003 0 0 1 1.933 -2.517a2 2 0 0 1 .674 3.884l-1.69 9.295a1 1 0 0 1 -.865 .814l-.119 .007h-8a1 1 0 0 1 -.956 -.705l-.028 -.116l-1.69 -9.295a2 2 0 1 1 2.607 -1.367l1.701 1.702l.794 -1.983a2 2 0 0 1 1.572 -3.236z" /><path d="M18 18h-12a1 1 0 0 0 -1 1a2 2 0 0 0 2 2h10a2 2 0 0 0 1.987 -1.768l.011 -.174a1 1 0 0 0 -.998 -1.058z" /></symbol><symbol id="k" viewBox="0 0 24 24"><path stroke="none" d="M0 0h24v24H0z" fill="none"/><path d="M12 2a1 1 0 0 1 .993 .883l.007 .117v2h2a1 1 0 0 1 .117 1.993l-.117 .007h-2v1.758a4.49 4.49 0 0 1 2.033 -.734l.24 -.018l.227 -.006a4.5 4.5 0 0 1 4.5 4.5a4.504 4.504 0 0 1 -4.064 4.478l-.217 .016l-.219 .006h-7a4.5 4.5 0 1 1 2.501 -8.241l-.001 -1.759h-2a1 1 0 0 1 -.117 -1.993l.117 -.007h2v-2a1 1 0 0 1 1 -1z" /><path d="M18 18h-12a1 1 0 0 0 -1 1a2 2 0 0 0 2 2h10a2 2 0 0 0 1.987 -1.768l.011 -.174a1 1 0 0 0 -.998 -1.058z" /></symbol></defs></svg>
